<?xml version="1.0" encoding="UTF-8" standalone="no"?>
<!DOCTYPE svg PUBLIC "-//W3C//DTD SVG 1.1//EN" "http://www.w3.org/Graphics/SVG/1.1/DTD/svg11.dtd">
<svg version="1.1" xmlns="http://www.w3.org/2000/svg" xmlns:xlink="http://www.w3.org/1999/xlink" preserveAspectRatio="xMidYMid meet" viewBox="0 0 447 478" width="447" height="478"><defs><path d="M483 -1C483 -1 483 -1 483 -1C483 289.4 483 450.73 483 483C483 483 483 483 483 483C192.6 483 31.27 483 -1 483C-1 483 -1 483 -1 483C-1 192.6 -1 31.27 -1 -1C-1 -1 -1 -1 -1 -1C289.4 -1 450.73 -1 483 -1Z" id="d1lePukbVP"></path><path d="M177.02 164.14C158.91 149.31 141.74 131.59 119.7 123.12C92.34 112.62 58.21 115.31 34.75 134C13.4 151.01 14.68 184.97 29.65 205.55C61.71 249.59 98.81 239.41 143.35 242.11C118.26 247.31 91.9 251.69 69.72 264.87C43.11 280.71 20.47 301.59 25.8 338.92C29.72 366.38 59.87 389.14 85.57 387.95C136.22 385.59 150.69 349.18 177.69 317.06C169.68 346.77 154.34 377.55 162.6 408.89C170.22 437.8 191.54 465.2 229.04 459.87C262.45 455.12 277.6 432.09 282.2 407.89C288.77 373.3 274.41 341.08 262.14 308.58C280.3 327.46 298.28 348.02 321.69 360.01C347.78 373.38 377.79 377.03 402.93 361.05C426.74 345.92 434.25 303.71 421.95 280.72C410.15 258.67 384.03 248.69 359.98 245.29C341.27 242.65 322.32 242.25 303.61 239.73C333.27 235.21 366.77 235.99 391.09 215.82C413.79 197 426.97 168.46 409.59 136.31C393.22 106.04 368.79 105.52 344.78 108.9C307.02 114.23 285.78 138.5 262.77 162.62C272.04 135.76 279.27 106.71 277.34 78.06C275.41 49.32 262.67 17.92 217.72 19.52C173.38 21.09 156.83 52.89 156.68 86.19C156.55 113.85 169.84 138.35 177.02 164.14Z" id="aJBtVF0B"></path></defs><g><g><g><use xlink:href="#d1lePukbVP" opacity="1" fill="#000000" fill-opacity="0"></use><g><use xlink:href="#d1lePukbVP" opacity="1" fill-opacity="0" stroke="#000000" stroke-width="1" stroke-opacity="0"></use></g></g><g><use xlink:href="#aJBtVF0B" opacity="1" fill="#ca51db" fill-opacity="1"></use><g><use xlink:href="#aJBtVF0B" opacity="1" fill-opacity="0" stroke="#000000" stroke-width="0" stroke-opacity="1"></use></g></g></g></g></svg>