<?xml version="1.0" encoding="UTF-8" standalone="no"?>
<!DOCTYPE svg PUBLIC "-//W3C//DTD SVG 1.1//EN" "http://www.w3.org/Graphics/SVG/1.1/DTD/svg11.dtd">
<svg version="1.1" xmlns="http://www.w3.org/2000/svg" xmlns:xlink="http://www.w3.org/1999/xlink" preserveAspectRatio="xMidYMid meet" viewBox="0 0 447 478" width="447" height="478"><defs><path d="M483 -1C483 -1 483 -1 483 -1C483 289.4 483 450.73 483 483C483 483 483 483 483 483C192.6 483 31.27 483 -1 483C-1 483 -1 483 -1 483C-1 192.6 -1 31.27 -1 -1C-1 -1 -1 -1 -1 -1C289.4 -1 450.73 -1 483 -1Z" id="d1lePukbVP"></path><path d="M172.84 157.77C153.09 141.68 134.37 122.48 110.32 113.3C80.49 101.91 43.26 104.83 17.68 125.09C-5.61 143.53 -4.21 180.35 12.12 202.65C47.08 250.4 87.54 239.36 136.11 242.29C108.76 247.93 80.01 252.67 55.82 266.97C26.79 284.13 2.11 306.77 7.92 347.24C12.19 377.01 45.08 401.68 73.1 400.38C128.34 397.83 144.12 358.36 173.57 323.54C164.83 355.75 148.11 389.11 157.12 423.09C165.42 454.43 188.68 484.13 229.57 478.35C266.01 473.21 282.53 448.23 287.55 422.01C294.72 384.5 279.05 349.57 265.67 314.35C285.47 334.82 305.09 357.1 330.61 370.1C359.07 384.59 391.8 388.55 419.22 371.23C445.19 354.83 453.38 309.06 439.96 284.14C427.1 260.24 398.6 249.42 372.37 245.74C351.97 242.87 331.3 242.44 310.9 239.71C343.24 234.81 379.78 235.66 406.31 213.79C431.07 193.39 445.44 162.44 426.48 127.59C408.63 94.78 381.98 94.21 355.79 97.88C314.62 103.65 291.45 129.97 266.36 156.11C276.47 127 284.36 95.5 282.25 64.45C280.14 33.3 266.25 -0.75 217.23 0.98C168.86 2.69 150.82 37.17 150.65 73.26C150.52 103.25 165.01 129.8 172.84 157.77Z" id="d1eetYGP3M"></path></defs><g><g><g><use xlink:href="#d1lePukbVP" opacity="1" fill="#000000" fill-opacity="0"></use><g><use xlink:href="#d1lePukbVP" opacity="1" fill-opacity="0" stroke="#000000" stroke-width="1" stroke-opacity="0"></use></g></g><g><use xlink:href="#d1eetYGP3M" opacity="1" fill="#a92cbb" fill-opacity="1"></use><g><use xlink:href="#d1eetYGP3M" opacity="1" fill-opacity="0" stroke="#000000" stroke-width="0" stroke-opacity="1"></use></g></g></g></g></svg>