<?xml version="1.0" encoding="UTF-8" standalone="no"?>
<!DOCTYPE svg PUBLIC "-//W3C//DTD SVG 1.1//EN" "http://www.w3.org/Graphics/SVG/1.1/DTD/svg11.dtd">
<svg version="1.1" xmlns="http://www.w3.org/2000/svg" xmlns:xlink="http://www.w3.org/1999/xlink" preserveAspectRatio="xMidYMid meet" viewBox="0 0 447 480" width="447" height="480"><defs><path d="M483 -1C483 -1 483 -1 483 -1C483 289.4 483 450.73 483 483C483 483 483 483 483 483C192.6 483 31.27 483 -1 483C-1 483 -1 483 -1 483C-1 192.6 -1 31.27 -1 -1C-1 -1 -1 -1 -1 -1C289.4 -1 450.73 -1 483 -1Z" id="d1lePukbVP"></path><path d="M285.9 240C285.9 274.65 257.82 302.74 223.16 302.74C188.51 302.74 160.42 274.65 160.42 240C160.42 205.35 188.51 177.26 223.16 177.26C257.82 177.26 285.9 205.35 285.9 240Z" id="a13szpX0hh"></path></defs><g><g><g><use xlink:href="#d1lePukbVP" opacity="1" fill="#000000" fill-opacity="0"></use><g><use xlink:href="#d1lePukbVP" opacity="1" fill-opacity="0" stroke="#000000" stroke-width="1" stroke-opacity="0"></use></g></g><g><use xlink:href="#a13szpX0hh" opacity="1" fill="#f198ff" fill-opacity="1"></use><g><use xlink:href="#a13szpX0hh" opacity="1" fill-opacity="0" stroke="#000000" stroke-width="0" stroke-opacity="1"></use></g></g></g></g></svg>